<?xml version="1.0" encoding="iso-8859-1"?>
<!-- Uploaded to: SVG Repo, www.svgrepo.com, Generator: SVG Repo Mixer Tools -->
<svg height="800px" width="800px" version="1.1" id="Layer_1" xmlns="http://www.w3.org/2000/svg" xmlns:xlink="http://www.w3.org/1999/xlink" 
	 viewBox="0 0 512 512" xml:space="preserve">
<path style="fill:#9ED368;" d="M512,256.006C512,397.402,397.394,512.004,256.004,512C114.606,512.004,0,397.402,0,256.006
	C-0.007,114.61,114.606,0,256.004,0C397.394,0,512,114.614,512,256.006z"/>
<path style="fill:#8BC052;" d="M510.88,279.526c-0.015-0.014-0.029-0.03-0.045-0.045c-0.493-0.497-127.329-127.358-127.84-127.84
	c-12.061-12.158-29.004-19.775-47.789-19.775H184.716c-0.023-0.02-0.052-0.034-0.076-0.054
	c-0.512-0.482-23.252-23.331-23.788-23.788c-7.604-7.15-17.742-11.625-28.986-11.625c-23.469,0-42.56,19.091-42.56,42.56
	c0,12.113,5.143,22.994,13.292,30.751c0.487,0.512,75.169,75.22,75.614,75.649h-8.513c-36.506,0-66.206,28.636-66.206,63.84
	c0,17.83,7.639,33.956,19.903,45.55c0.493,0.497,155.571,155.6,156.08,156.081c0.017,0.017,0.034,0.033,0.05,0.05
	C402.133,499.71,499.707,402.137,510.88,279.526z"/>
<g>
	<path style="fill:#F4F6F9;" d="M169.699,259.547h165.509c36.506,0,66.206-28.637,66.206-63.84s-29.7-63.84-66.206-63.84H173.786
		c-3.393-20.096-20.871-35.467-41.919-35.467c-23.469,0-42.56,19.091-42.56,42.56s19.091,42.56,42.56,42.56
		c21.047,0,38.526-15.371,41.919-35.467h161.422c28.685,0,52.019,22.277,52.019,49.653s-23.333,49.653-52.019,49.653H169.699
		c-36.506,0-66.206,28.637-66.206,63.84s29.7,63.84,66.206,63.84h115.284l-30.451,30.451c-2.771,2.771-2.771,7.26,0,10.031
		c1.386,1.386,3.2,2.078,5.015,2.078s3.63-0.692,5.015-2.078l42.554-42.554c0.657-0.655,1.177-1.44,1.537-2.311
		c0.717-1.733,0.718-3.687,0-5.421c-0.361-0.87-0.881-1.657-1.537-2.311l-42.554-42.554c-2.771-2.771-7.26-2.771-10.031,0
		c-2.771,2.771-2.771,7.26,0,10.031l30.451,30.451H169.699c-28.685,0-52.019-22.277-52.019-49.653
		C117.68,281.824,141.014,259.547,169.699,259.547z M131.867,167.333c-15.645,0-28.373-12.725-28.373-28.373
		s12.729-28.373,28.373-28.373s28.373,12.725,28.373,28.373S147.511,167.333,131.867,167.333z"/>
	<path style="fill:#F4F6F9;" d="M380.133,323.387c-23.469,0-42.56,19.091-42.56,42.56c0,23.469,19.091,42.56,42.56,42.56
		c23.469,0,42.56-19.091,42.56-42.56S403.602,323.387,380.133,323.387z M380.133,394.32c-15.645,0-28.373-12.725-28.373-28.373
		c0-15.648,12.729-28.373,28.373-28.373c15.645,0,28.373,12.725,28.373,28.373C408.507,381.595,395.778,394.32,380.133,394.32z"/>
</g>
</svg>