<svg viewBox="0 0 24 24" xmlns="http://www.w3.org/2000/svg">

  <!-- Rocket body -->
  <path d="M12 2c2.8 2.3 4 6.2 4 9.3 0 3.1-1.2 7-4 9.3-2.8-2.3-4-6.2-4-9.3C8 8.2 9.2 4.3 12 2z"
        fill="#4A8CFF"/>

  <!-- Window -->
  <circle cx="12" cy="9" r="1.7" fill="#fff"/>

  <!-- Wings -->
  <path d="M8 14l-3.2 2.2c-.4.3-.5 1-.1 1.4L7 19c.4.4 1.2.3 1.4-.2L10 15"
        fill="#4A8CFF"/>
  <path d="M16 14l3.2 2.2c.4.3.5 1 .1 1.4L17 19c-.4.4-1.2.3-1.4-.2L14 15"
        fill="#4A8CFF"/>

  <!-- Flame -->
  <path d="M12 18c.9 1 .9 2.4 0 3.4-.9-1-.9-2.4 0-3.4z"
        fill="#FF9D4D"/>

</svg>
